Coordinates
version=1
nRows=11
nColumns=40
inDegrees=yes

Units are S.I. units (second, meters, Newtons, ...)
If the header above contains a line with 'inDegrees', this indicates whether rotational values are in degrees (yes) or radians (no).

endheader
time	pelvis_tilt	pelvis_list	pelvis_rotation	pelvis_tx	pelvis_ty	pelvis_tz	hip_flexion_r	hip_adduction_r	hip_rotation_r	knee_angle_r	knee_angle_r_beta	ankle_angle_r	subtalar_angle_r	mtp_angle_r	hip_flexion_l	hip_adduction_l	hip_rotation_l	knee_angle_l	knee_angle_l_beta	ankle_angle_l	subtalar_angle_l	mtp_angle_l	lumbar_extension	lumbar_bending	lumbar_rotation	arm_flex_r	arm_add_r	arm_rot_r	elbow_flex_r	pro_sup_r	wrist_flex_r	wrist_dev_r	arm_flex_l	arm_add_l	arm_rot_l	elbow_flex_l	pro_sup_l	wrist_flex_l	wrist_dev_l
      4.36000000	    -19.81790240	      3.77800542	     -2.96680707	     -0.47476050	      0.59865451	     -0.85743483	     92.44957051	    -20.18871035	     11.06427984	    109.06638774	      1.90356757	     36.69670066	      0.00000000	      0.00000000	     88.26576440	    -25.43805435	      6.24104066	    107.51188494	      1.87643638	     36.31912403	      0.00000000	      0.00000000	    -27.86478054	     -6.30450853	      3.79632006	    -14.63818787	    -66.43688462	     45.45030492	    117.71166653	     88.06149635	      0.00000000	      0.00000000	     10.66998991	    -65.34414187	     78.87102151	    108.61269418	     88.27264066	      0.00000000	      0.00000000
      4.36500000	    -19.74653260	      3.82167511	     -3.02071772	     -0.47599184	      0.59360772	     -0.85692521	     93.04737556	    -20.18586097	     11.30782542	    109.76193315	      1.91570713	     36.75947128	      0.00000000	      0.00000000	     88.87617928	    -25.56126936	      6.55517381	    108.21846832	      1.88876858	     36.45928851	      0.00000000	      0.00000000	    -28.44913053	     -6.35849436	      3.73881191	    -14.51307587	    -66.35337782	     45.36149424	    117.75184771	     88.05845440	      0.00000000	      0.00000000	     10.78581358	    -65.30756459	     78.87463103	    108.55378926	     88.27137968	      0.00000000	      0.00000000
      4.37000000	    -19.65075423	      3.75838660	     -2.98315708	     -0.47681373	      0.58864751	     -0.85703052	     93.59063132	    -20.29748059	     11.52417609	    110.51071584	      1.92877585	     36.80643770	      0.00000000	      0.00000000	     89.48137505	    -25.54563094	      6.96816648	    108.96346397	      1.90177121	     36.59888259	      0.00000000	      0.00000000	    -29.01796135	     -6.22217213	      3.63832289	    -14.46161510	    -66.40608027	     45.31018639	    117.76135232	     88.06202390	      0.00000000	      0.00000000	     10.73482253	    -65.25106651	     79.04740095	    108.49872912	     88.28164689	      0.00000000	      0.00000000
      4.37500000	    -19.81135571	      3.73000071	     -2.52214651	     -0.47740951	      0.58282604	     -0.85796716	     94.50957039	    -20.91791622	     11.81301668	    111.35335500	      1.94348268	     36.70695145	      0.00000000	      0.00000000	     90.42842194	    -24.94896170	      7.54522846	    109.74895187	      1.91548056	     36.61905924	      0.00000000	      0.00000000	    -29.23725808	     -5.86057420	      3.19009789	    -14.61252499	    -66.62239215	     45.35185422	    118.02549694	     88.08336119	      0.00000000	      0.00000000	     10.67741714	    -65.25984632	     79.43247835	    108.51287862	     88.29010148	      0.00000000	      0.00000000
      4.38000000	    -19.60165736	      3.41742565	     -2.26401879	     -0.47850118	      0.57833497	     -0.85839035	     94.75995308	    -21.29078982	     11.68718435	    112.01589728	      1.95504622	     36.70064662	      0.00000000	      0.00000000	     91.07219681	    -24.63242522	      8.32904251	    110.41602124	      1.92712312	     36.50766484	      0.00000000	      0.00000000	    -29.95873636	     -5.32861852	      3.04799620	    -14.47808864	    -66.86321910	     45.35623569	    118.30444903	     88.09576623	      0.00000000	      0.00000000	     11.02700927	    -65.19355308	     79.88015276	    108.51859020	     88.28477397	      0.00000000	      0.00000000
      4.38500000	    -19.30957174	      3.12248260	     -1.64186956	     -0.47807677	      0.57366528	     -0.85936025	     94.87387743	    -22.16849330	     11.65503766	    112.87244796	      1.96999585	     36.93673192	      0.00000000	      0.00000000	     91.52667072	    -23.97252136	      9.05332510	    111.16348462	      1.94016881	     36.62117071	      0.00000000	      0.00000000	    -30.62900802	     -4.65588829	      2.61422502	    -14.53285730	    -66.90610851	     45.47457069	    118.26541824	     88.10974283	      0.00000000	      0.00000000	     11.21058963	    -65.09444302	     80.41394613	    108.35851004	     88.29150087	      0.00000000	      0.00000000
      4.39000000	    -19.22275877	      3.21409884	     -1.30903224	     -0.47878924	      0.56843507	     -0.86006395	     95.53987317	    -22.62543462	     12.11979281	    113.64494676	      1.98347850	     37.01950721	      0.00000000	      0.00000000	     92.08114493	    -23.50190686	      9.38740440	    111.88597364	      1.95277863	     36.63559024	      0.00000000	      0.00000000	    -31.04989789	     -4.49306496	      2.27251927	    -14.46530386	    -67.10381445	     45.70711264	    118.47796744	     88.11037101	      0.00000000	      0.00000000	     11.79854385	    -65.18910634	     81.28367178	    108.48628432	     88.27225218	      0.00000000	      0.00000000
      4.39500000	    -18.99137487	      3.23178767	     -1.11298226	     -0.47974348	      0.56394076	     -0.86028492	     95.95681669	    -22.87352476	     12.47964519	    114.31150762	      1.99511218	     37.02736195	      0.00000000	      0.00000000	     92.46318361	    -23.20902014	      9.76508454	    112.50630437	      1.96360544	     36.71214704	      0.00000000	      0.00000000	    -31.71775914	     -4.34187938	      2.04849926	    -14.34042466	    -67.34248424	     45.85244260	    118.80815423	     88.12500701	      0.00000000	      0.00000000	     12.12146388	    -65.38898851	     81.70764518	    108.74041245	     88.28352435	      0.00000000	      0.00000000
      4.40000000	    -18.13997975	      2.31974892	     -0.98949975	     -0.48013904	      0.56128463	     -0.86036961	     94.94510933	    -23.08624136	     11.60763793	    114.83746988	      2.00429195	     37.32648837	      0.00000000	      0.00000000	     92.56858346	    -23.09643600	     11.19077212	    113.10092836	      1.97398359	     36.77002741	      0.00000000	      0.00000000	    -33.03674692	     -3.30092424	      2.39679518	    -13.61965890	    -67.88250652	     46.58219105	    119.00200710	     88.12962161	      0.00000000	      0.00000000	     13.39749558	    -65.22252468	     83.14854865	    108.79925440	     88.29446868	      0.00000000	      0.00000000
      4.40500000	    -18.49478618	      3.34877121	     -0.81886411	     -0.48106032	      0.55520651	     -0.86117995	     96.77764849	    -23.30592945	     13.31952075	    115.60424019	      2.01767462	     37.06933066	      0.00000000	      0.00000000	     93.04149597	    -22.64980607	     10.42457925	    113.78145623	      1.98586104	     36.91350571	      0.00000000	      0.00000000	    -32.92832987	     -4.11885699	      1.73304336	    -13.61058756	    -67.88853269	     46.96573442	    119.09008495	     88.13972123	      0.00000000	      0.00000000	     13.78344047	    -65.58647502	     83.77467575	    109.10348145	     88.28224222	      0.00000000	      0.00000000
      4.41000000	    -18.36109293	      3.49484442	     -0.90375136	     -0.48200639	      0.55076504	     -0.86126442	     97.34005102	    -23.22585632	     13.76952988	    116.17568383	      2.02764819	     37.17504057	      0.00000000	      0.00000000	     93.40694200	    -22.60238523	     10.69426827	    114.40550879	      1.99675281	     37.03094467	      0.00000000	      0.00000000	    -33.40303754	     -4.20860405	      1.70656968	    -13.54097687	    -68.10285106	     46.98679969	    119.16246512	     88.14160190	      0.00000000	      0.00000000	     13.92280540	    -65.65152869	     83.79115928	    109.17992501	     88.28528171	      0.00000000	      0.00000000
